<svg width="30" height="29" viewBox="0 0 30 29" fill="none" xmlns="http://www.w3.org/2000/svg">
<path d="M0.333313 28.3333C0.333313 25.5043 1.45712 22.7912 3.45751 20.7908C5.4579 18.7904 8.171 17.6666 11 17.6666C13.829 17.6666 16.5421 18.7904 18.5425 20.7908C20.5428 22.7912 21.6666 25.5043 21.6666 28.3333H19C19 26.2116 18.1571 24.1767 16.6568 22.6764C15.1565 21.1761 13.1217 20.3333 11 20.3333C8.87825 20.3333 6.84342 21.1761 5.34313 22.6764C3.84283 24.1767 2.99998 26.2116 2.99998 28.3333H0.333313ZM11 16.3333C6.57998 16.3333 2.99998 12.7533 2.99998 8.33329C2.99998 3.91329 6.57998 0.333288 11 0.333288C15.42 0.333288 19 3.91329 19 8.33329C19 12.7533 15.42 16.3333 11 16.3333ZM11 13.6666C13.9466 13.6666 16.3333 11.28 16.3333 8.33329C16.3333 5.38662 13.9466 2.99995 11 2.99995C8.05331 2.99995 5.66665 5.38662 5.66665 8.33329C5.66665 11.28 8.05331 13.6666 11 13.6666ZM27.7306 0.0452881C29.0082 2.62106 29.6709 5.45808 29.6666 8.33329C29.6666 11.3106 28.9693 14.1253 27.7306 16.6213L25.5373 15.0266C26.5043 12.9279 27.0033 10.644 27 8.33329C27 5.94395 26.476 3.67595 25.5373 1.63995L27.7306 0.0452881ZM23.328 3.24529C23.9939 4.85883 24.3355 6.58773 24.3333 8.33329C24.3355 10.0788 23.9939 11.8077 23.328 13.4213L21.092 11.7946C21.4735 10.6805 21.6677 9.5109 21.6666 8.33329C21.6681 7.15575 21.4744 5.98612 21.0933 4.87195L23.328 3.24529Z" fill="#182A68"/>
</svg>
