<svg width="26" height="32" viewBox="0 0 26 32" fill="none" xmlns="http://www.w3.org/2000/svg">
<path fill-rule="evenodd" clip-rule="evenodd" d="M11.844 0.0589229C10.9369 0.191028 9.87847 0.556395 9.06209 1.01923C7.04763 2.16141 5.63824 4.11066 5.15083 6.42878C4.81873 8.00853 5.08369 10.0449 5.81067 11.4989C6.30045 12.4787 7.23112 13.634 8.00706 14.2258L8.31291 14.459L8.29597 15.6762L8.27909 16.8934L5.1407 18.1505C3.41459 18.842 1.94531 19.4593 1.8756 19.5223C1.80595 19.5854 1.73274 19.688 1.71298 19.7504C1.69316 19.8127 1.37137 22.4604 0.997814 25.6341C0.393683 30.7675 0.327912 31.4265 0.402123 31.604C0.58043 32.0309 -0.420828 31.9995 12.9993 31.9995C26.4239 31.9995 25.4181 32.0312 25.5973 31.6025C25.6723 31.4229 25.6086 30.7803 25.0029 25.6091C24.6298 22.4234 24.296 19.7634 24.261 19.6979C24.2259 19.6325 24.1494 19.5391 24.0909 19.4903C24.0324 19.4416 22.575 18.8376 20.8521 18.1482L17.7196 16.8946L17.7027 15.6768L17.6858 14.459L17.9916 14.2258C18.1598 14.0975 18.5198 13.7607 18.7916 13.4773C20.8245 11.3579 21.5116 8.28687 20.5854 5.45972C19.6482 2.59886 17.1062 0.482246 14.0934 0.0539213C13.5728 -0.0201024 12.3682 -0.017414 11.844 0.0589229ZM13.6887 1.36659C14.8082 1.50282 15.8635 1.89007 16.7582 2.4932C18.7042 3.80481 19.8762 6.29248 19.6292 8.58678C19.4487 10.264 18.7698 11.6724 17.6047 12.7873C17 13.3659 16.5719 13.6588 15.7939 14.0262C13.7032 15.0136 11.2408 14.8207 9.26715 13.5147C8.81438 13.2151 8.06483 12.5089 7.71859 12.0556C6.20129 10.0693 5.91108 7.42854 6.96491 5.19726C7.33234 4.41926 7.62525 3.99112 8.20387 3.38643C9.62514 1.90108 11.7253 1.1277 13.6887 1.36659ZM12.3553 3.34241C12.3313 3.36648 12.3116 3.67683 12.3116 4.0322V4.67822H11.5441C10.3242 4.67822 10.311 4.69972 10.311 6.68305C10.311 8.7836 10.1907 8.6795 12.618 8.6795H14.3123V9.33596V9.99242H12.3116H10.311V10.6489V11.3053H11.3092H12.3074L12.3251 11.9774L12.3429 12.6495H12.9993H13.6558L13.6736 11.9774L13.6913 11.3053H14.4568C15.6742 11.3053 15.6877 11.2833 15.6877 9.30051C15.6877 7.19996 15.808 7.30406 13.3807 7.30406H11.6864V6.6476V5.99114H13.6871H15.6877V5.33468V4.67822H14.6895H13.6913L13.6736 4.00613L13.6558 3.33404L13.0274 3.31634C12.6819 3.30665 12.3794 3.31834 12.3553 3.34241ZM10.436 15.5485C12.045 16.1163 13.8598 16.1292 15.4577 15.5841C15.8077 15.4647 16.1434 15.3501 16.2035 15.3295C16.3044 15.2949 16.3129 15.3628 16.3129 16.2024V17.1128L14.6841 19.0074C13.7884 20.0495 13.0302 20.9022 12.9993 20.9022C12.9685 20.9022 12.2103 20.0495 11.3146 19.0074L9.68579 17.1128V16.2024C9.68579 15.364 9.69442 15.2947 9.7952 15.3265C9.8554 15.3454 10.1437 15.4454 10.436 15.5485ZM10.4927 20.0893L11.9359 21.7773L10.17 22.6649C9.19876 23.1531 8.38299 23.554 8.35724 23.5559C8.33148 23.5578 8.31035 22.3806 8.31035 20.9401V18.321L8.5448 18.2254C8.83351 18.1078 8.64126 17.9238 10.4927 20.0893ZM17.6647 18.3076C17.6777 18.3076 17.6884 19.4892 17.6884 20.9334C17.6884 22.3776 17.6673 23.5578 17.6415 23.5559C17.6156 23.554 16.8014 23.1531 15.8321 22.665L14.0696 21.7774L15.6356 19.9507L17.2016 18.1239L17.4213 18.2157C17.5422 18.2663 17.6517 18.3076 17.6647 18.3076ZM6.99742 21.846C6.99742 25.0891 6.99636 25.0788 7.35454 25.242C7.65063 25.3769 7.87496 25.3094 8.99807 24.7471C9.61626 24.4377 10.1319 24.1845 10.1439 24.1845C10.1559 24.1845 10.3522 24.4197 10.5801 24.7073L10.9944 25.2301L10.0847 27.9583L9.17506 30.6866H5.4533H1.73155L1.76869 30.4208C1.78907 30.2747 2.06222 27.9747 2.37569 25.3098C2.68911 22.6449 2.94988 20.462 2.95519 20.4588C3.01384 20.424 6.91602 18.8753 6.95053 18.8732C6.97629 18.8716 6.99742 20.2093 6.99742 21.846ZM21.0487 19.6616C22.1405 20.0969 23.0383 20.4556 23.0437 20.4588C23.0491 20.462 23.3097 22.6449 23.6227 25.3098C23.9357 27.9747 24.2087 30.2747 24.2294 30.4208L24.2671 30.6866H20.5454H16.8236L15.914 27.9583L15.0043 25.2301L15.4186 24.7073C15.6465 24.4197 15.8428 24.1845 15.8548 24.1845C15.8668 24.1845 16.3824 24.4377 17.0006 24.7471C18.1589 25.327 18.3629 25.3845 18.6796 25.2207C18.9981 25.056 19.0013 25.0231 19.0013 21.837C19.0013 20.2053 19.0153 18.8703 19.0324 18.8703C19.0496 18.8703 19.9569 19.2264 21.0487 19.6616ZM13.8165 23.1551L14.6319 23.5637L14.4252 23.825C13.6406 24.8168 13.046 25.5287 13.0022 25.5287C12.9739 25.5287 12.5957 25.0859 12.1616 24.5448L11.3725 23.5609L12.1703 23.157C12.609 22.9348 12.9755 22.7516 12.9846 22.7498C12.9937 22.7479 13.368 22.9304 13.8165 23.1551ZM12.6856 27.2473C12.7505 27.282 12.8917 27.3105 12.9993 27.3105C13.2747 27.3105 13.3913 27.2331 13.7153 26.8354C13.8964 26.6131 14.0108 26.517 14.0309 26.5703C14.1357 26.8479 15.3751 30.5991 15.3751 30.6385C15.3751 30.6649 14.306 30.6866 12.9993 30.6866C11.6927 30.6866 10.6236 30.6649 10.6236 30.6385C10.6236 30.5991 11.863 26.8479 11.9678 26.5703C11.9879 26.517 12.1023 26.6131 12.2834 26.8354C12.4397 27.0272 12.6207 27.2126 12.6856 27.2473Z" fill="#182A68"/>
</svg>
