<svg width="30" height="30" viewBox="0 0 30 30" fill="none" xmlns="http://www.w3.org/2000/svg">
<path d="M25.584 9.66667H27C27.7073 9.66667 28.3856 9.94762 28.8857 10.4477C29.3858 10.9478 29.6667 11.6261 29.6667 12.3333V17.6667C29.6667 18.3739 29.3858 19.0522 28.8857 19.5523C28.3856 20.0524 27.7073 20.3333 27 20.3333H25.584C25.259 22.9111 24.0044 25.2816 22.0557 27C20.107 28.7184 17.5982 29.6666 15 29.6667V27C17.1218 27 19.1566 26.1572 20.6569 24.6569C22.1572 23.1566 23 21.1217 23 19V11C23 8.87827 22.1572 6.84344 20.6569 5.34315C19.1566 3.84286 17.1218 3 15 3C12.8783 3 10.8435 3.84286 9.34319 5.34315C7.8429 6.84344 7.00004 8.87827 7.00004 11V20.3333H3.00004C2.2928 20.3333 1.61452 20.0524 1.11442 19.5523C0.614326 19.0522 0.333374 18.3739 0.333374 17.6667V12.3333C0.333374 11.6261 0.614326 10.9478 1.11442 10.4477C1.61452 9.94762 2.2928 9.66667 3.00004 9.66667H4.41604C4.74142 7.0892 5.99615 4.71903 7.94481 3.0009C9.89346 1.28277 12.4021 0.33477 15 0.33477C17.598 0.33477 20.1066 1.28277 22.0553 3.0009C24.0039 4.71903 25.2587 7.0892 25.584 9.66667ZM3.00004 12.3333V17.6667H4.33337V12.3333H3.00004ZM25.6667 12.3333V17.6667H27V12.3333H25.6667ZM9.34671 20.0467L10.76 17.7853C12.0308 18.5814 13.5005 19.0024 15 19C16.4996 19.0024 17.9693 18.5814 19.24 17.7853L20.6534 20.0467C18.9591 21.1082 16.9994 21.6697 15 21.6667C13.0007 21.6697 11.041 21.1082 9.34671 20.0467Z" fill="#182A68"/>
</svg>
