<svg width="32" height="32" viewBox="0 0 32 32" fill="none" xmlns="http://www.w3.org/2000/svg">
<path fill-rule="evenodd" clip-rule="evenodd" d="M15.0558 0.0894983C14.8185 0.194922 14.6033 0.422157 14.5117 0.663908C14.4663 0.783913 14.4429 1.96125 14.4429 4.13385C14.4429 7.78394 14.4348 7.70929 14.8665 8.03859L15.1103 8.22453H19.0946C23.0182 8.22453 23.0816 8.22254 23.2571 8.0915C23.3551 8.01833 23.4951 7.87833 23.5683 7.78032C23.6988 7.60554 23.7013 7.53618 23.7013 4.13398V0.665779L23.5154 0.422028C23.1825 -0.0145059 23.3155 -0.00186027 19.0742 0.000914036C16.0309 0.00291412 15.2098 0.0210439 15.0558 0.0894983ZM22.7013 4.1276V7.22449H19.0883H15.4752V4.1276V1.0307H19.0883H22.7013V4.1276ZM19.6381 3.58073L18.5428 4.90227L17.9916 4.3536C17.6885 4.05192 17.4109 3.805 17.3748 3.805C17.2899 3.805 16.7011 4.40187 16.7011 4.48787C16.7011 4.52387 17.0737 4.92208 17.5292 5.37274C18.2115 6.04787 18.3905 6.192 18.5454 6.19123C18.6488 6.19065 18.7703 6.16677 18.8154 6.13819C18.8605 6.10955 19.491 5.37694 20.2166 4.51006L21.5358 2.934L21.1669 2.59682C20.964 2.4114 20.7835 2.25959 20.7657 2.25946C20.748 2.25933 20.2406 2.85393 19.6381 3.58073ZM10.5234 7.06571C9.98228 7.47354 9.53948 7.83058 9.53948 7.8591C9.53948 7.90252 9.97866 8.5239 10.0833 8.62855C10.1014 8.64674 10.5788 8.31518 11.144 7.89181L12.1718 7.1221L11.8847 6.73783C11.7269 6.5264 11.5774 6.34691 11.5525 6.33885C11.5276 6.33078 11.0645 6.65789 10.5234 7.06571ZM5.403 8.35041C4.9062 8.48738 4.5009 8.72172 4.07585 9.11773C2.96199 10.1555 2.77818 11.8209 3.63667 13.0966L3.85313 13.4183H3.3004C2.54391 13.4183 2.28229 13.5083 1.89937 13.9001C1.59955 14.2069 1.5382 14.3363 0.786423 16.2461C-0.0208994 18.297 -0.0770308 18.5057 0.05491 18.9657C0.0902018 19.0888 0.67087 20.0181 1.34528 21.031L2.57146 22.8725V27.4361V31.9997H3.08761H3.60376V24.5155V17.0313H3.08761H2.57146L2.5714 19.0153L2.57133 20.9992L1.79724 19.8379C1.37148 19.1992 1.02314 18.6235 1.02308 18.5586C1.02295 18.3348 2.52307 14.6796 2.66211 14.5649C2.78625 14.4625 3.06897 14.4534 6.13419 14.452L9.4711 14.4506L11.0261 15.2248L12.5811 15.999H14.2862H15.9914V16.5474C15.9914 16.8491 15.9841 17.0963 15.9752 17.0968C15.9664 17.0973 15.1677 17.1967 14.2004 17.3176L12.4417 17.5374L10.9115 17.0262C10.0698 16.7452 9.31386 16.5152 9.2316 16.5152C9.14934 16.5152 9.01075 16.5865 8.92365 16.6736L8.76526 16.8319V24.4158V31.9997H9.28141H9.79756V24.8751V17.7506L11.0395 18.168L12.2815 18.5855L14.4752 18.3178C15.6817 18.1707 16.7189 18.0236 16.7802 17.9909C16.9938 17.8772 17.0237 17.6927 17.0237 16.4842C17.0237 15.2954 17.0221 15.2819 16.8653 15.1251L16.7069 14.9667H14.7679H12.8289L11.2815 14.1925L9.73407 13.4183H9.12502H8.51589L8.73236 13.0966C9.59084 11.8209 9.40703 10.1555 8.29318 9.11773C7.65063 8.51906 6.98661 8.25408 6.15225 8.26331C5.90385 8.26608 5.56668 8.30525 5.403 8.35041ZM11.5135 9.03986C10.8427 9.17606 10.2791 9.30219 10.2611 9.32019C10.2184 9.36284 10.3766 10.2483 10.4332 10.2832C10.4702 10.3061 11.0706 10.1947 12.6758 9.86712L13.0056 9.79982L12.9115 9.33477C12.8597 9.07902 12.7985 8.8523 12.7753 8.83101C12.7521 8.80972 12.1843 8.90372 11.5135 9.03986ZM7.05551 9.48833C7.46301 9.68104 7.85174 10.0674 8.05594 10.4827C8.28098 10.9403 8.27976 11.7565 8.05336 12.2247C7.85438 12.6361 7.46689 13.0236 7.05551 13.2225C6.58737 13.4489 5.77108 13.4502 5.31351 13.2251C4.9022 13.0229 4.51528 12.636 4.31308 12.2247C4.18159 11.9573 4.15475 11.8082 4.15637 11.3537C4.15804 10.889 4.18443 10.755 4.32915 10.4758C4.42302 10.2945 4.57167 10.0609 4.65942 9.95667C4.83297 9.75034 5.38164 9.42723 5.69662 9.34581C6.04747 9.25503 6.70892 9.32439 7.05551 9.48833ZM18.5721 9.80524V10.3214H19.0883H19.6044V9.80524V9.28909H19.0883H18.5721V9.80524ZM23.3142 10.4125C23.0769 10.5179 22.8617 10.7452 22.7701 10.9869C22.7247 11.1069 22.7013 12.2842 22.7013 14.4569C22.7013 18.1069 22.6932 18.0323 23.1249 18.3616L23.3687 18.5475H27.353C31.2766 18.5475 31.34 18.5455 31.5155 18.4145C31.6135 18.3413 31.7535 18.2013 31.8267 18.1033C31.9572 17.9285 31.9597 17.8592 31.9597 14.457V10.9888L31.7738 10.745C31.4409 10.3085 31.5739 10.3211 27.3326 10.3239C24.2893 10.3259 23.4682 10.344 23.3142 10.4125ZM10.2958 11.3629C10.1975 11.6164 10.1251 11.8295 10.1347 11.8366C10.2755 11.9385 12.6673 12.8304 12.6994 12.7928C12.7666 12.7141 13.0235 12.0577 13.0235 11.9646C13.0235 11.8973 10.6815 10.9021 10.5229 10.9021C10.4963 10.9021 10.394 11.1094 10.2958 11.3629ZM18.5721 11.8698V12.386H19.0883H19.6044V11.8698V11.3537H19.0883H18.5721V11.8698ZM30.9597 14.4506V17.5475H27.3467H23.7336V14.4506V11.3537H27.3467H30.9597V14.4506ZM25.5233 12.6272L25.1533 12.9972L25.8779 13.7239L26.6026 14.4506L25.8779 15.1773L25.1533 15.904L25.5233 16.274L25.8932 16.6439L26.62 15.9193L27.3467 15.1947L28.0733 15.9193L28.8001 16.6439L29.17 16.274L29.54 15.904L28.8154 15.1773L28.0907 14.4506L28.8154 13.7239L29.54 12.9972L29.17 12.6272L28.8001 12.2573L28.0733 12.9819L27.3467 13.7065L26.62 12.9819L25.8932 12.2573L25.5233 12.6272ZM18.5721 13.9344V14.4506H19.0883H19.6044V13.9344V13.4183H19.0883H18.5721V13.9344ZM18.5721 15.999V16.5152H19.0883H19.6044V15.999V15.4829H19.0883H18.5721V15.999ZM18.5721 18.0636V18.5798H19.0883H19.6044V18.0636V17.5475H19.0883H18.5721V18.0636ZM18.5721 20.1282V20.6444H19.0883H19.6044V20.1282V19.6121H19.0883H18.5721V20.1282ZM26.8305 20.1282V20.6444H27.3467H27.8628V20.1282V19.6121H27.3467H26.8305V20.1282ZM18.4829 21.7443C18.0747 21.8469 17.4936 22.1908 17.2115 22.4968C17.0667 22.654 16.8562 22.9765 16.744 23.2135C16.559 23.6039 16.5398 23.7026 16.5398 24.2615C16.5398 24.8378 16.5548 24.9088 16.7671 25.3366L16.9945 25.7947L16.6534 25.8373C16.1833 25.896 15.4844 26.2598 15.1547 26.6176C15.0056 26.7794 14.7916 27.1057 14.6794 27.3427L14.4752 27.7737L14.455 29.8867L14.4349 31.9997H14.9551H15.4752V30.0877C15.4752 28.7752 15.4998 28.0926 15.5537 27.9102C15.6584 27.5558 16.1928 27.0214 16.5473 26.9166C16.9199 26.8066 21.2566 26.8066 21.6293 26.9166C21.9837 27.0214 22.5181 27.5558 22.6228 27.9102C22.6767 28.0926 22.7013 28.7752 22.7013 30.0877V31.9997H23.2175H23.7336V30.0877C23.7336 28.7752 23.7582 28.0926 23.8121 27.9102C23.9168 27.5558 24.4512 27.0214 24.8056 26.9166C25.1783 26.8066 29.515 26.8066 29.8877 26.9166C30.2421 27.0214 30.7765 27.5558 30.8812 27.9102C30.9351 28.0926 30.9597 28.7752 30.9597 30.0877V31.9997H31.4799H32L31.9799 29.8867L31.9597 27.7737L31.7555 27.3427C31.6433 27.1057 31.4293 26.7794 31.2802 26.6176C30.9505 26.2598 30.2516 25.896 29.7815 25.8373L29.4404 25.7947L29.6678 25.3366C29.8804 24.9082 29.8951 24.8383 29.8951 24.2582C29.8951 23.6718 29.8819 23.6111 29.6542 23.1503C29.364 22.563 28.9904 22.1973 28.3906 21.9131C28.0003 21.7282 27.9014 21.7089 27.3433 21.7089C26.7617 21.7089 26.6997 21.7225 26.2395 21.9499C25.6523 22.2401 25.2865 22.6137 25.0024 23.2135C24.8174 23.6039 24.7982 23.7026 24.7982 24.2615C24.7982 24.8378 24.8132 24.9088 25.0255 25.3366L25.2529 25.7947L24.9215 25.8361C24.4696 25.8925 23.8748 26.1863 23.5157 26.5303L23.2175 26.8161L22.9192 26.5303C22.5601 26.1863 21.9653 25.8925 21.5134 25.8361L21.182 25.7947L21.4094 25.3366C21.622 24.9082 21.6367 24.8383 21.6367 24.2582C21.6367 23.6718 21.6235 23.6111 21.3958 23.1503C20.9598 22.2681 20.1853 21.7505 19.2334 21.7052C18.9584 21.6921 18.6207 21.7097 18.4829 21.7443ZM19.5647 22.7874C20.1191 22.9513 20.6367 23.661 20.6367 24.2574C20.6367 25.0569 19.8877 25.8059 19.0883 25.8059C18.6824 25.8059 18.3556 25.6583 18.0215 25.3242C17.3688 24.6715 17.3688 23.8441 18.0215 23.19C18.4741 22.7364 18.9616 22.6092 19.5647 22.7874ZM27.8231 22.7874C28.3775 22.9513 28.8951 23.661 28.8951 24.2574C28.8951 25.0569 28.1461 25.8059 27.3467 25.8059C26.9408 25.8059 26.614 25.6583 26.2799 25.3242C25.6272 24.6715 25.6272 23.8441 26.2799 23.19C26.7325 22.7364 27.22 22.6092 27.8231 22.7874ZM5.66836 27.6124V31.9997H6.18451H6.70066V27.6124V23.2251H6.18451H5.66836V27.6124ZM15.9914 30.1932V31.9997H16.5075H17.0237V30.1932V28.3866H16.5075H15.9914V30.1932ZM21.1529 30.1932V31.9997H21.669H22.1852V30.1932V28.3866H21.669H21.1529V30.1932ZM24.2498 30.1932V31.9997H24.7659H25.2821V30.1932V28.3866H24.7659H24.2498V30.1932ZM29.4113 30.1932V31.9997H29.9274H30.4436V30.1932V28.3866H29.9274H29.4113V30.1932Z" fill="#182A68"/>
</svg>
