<svg width="32" height="32" viewBox="0 0 32 32" fill="none" xmlns="http://www.w3.org/2000/svg">
<path fill-rule="evenodd" clip-rule="evenodd" d="M19.1103 0.0777825C18.5003 0.221538 17.8392 0.713395 17.4574 1.30736L17.2465 1.63564H16.6956C16.2056 1.63564 16.1022 1.6569 15.7599 1.82798C15.3258 2.0449 14.9929 2.40569 14.8362 2.82914C14.6386 3.36333 14.69 3.70668 15.2756 5.76147C15.6175 6.96103 15.7936 7.67593 15.7507 7.69025C15.5946 7.74228 15.2983 8.04592 15.1387 8.31724C14.9932 8.56467 14.9682 8.67716 14.9692 9.07666C14.9705 9.56383 15.0625 9.83139 15.3291 10.1229L15.4567 10.2625L15.2754 10.4043C13.1561 12.0624 11.4296 14.7902 10.8787 17.3508C10.8108 17.6664 10.7358 18.1005 10.7119 18.3154L10.6686 18.7062H10.3459C9.65979 18.7062 9.45401 18.7934 6.96421 20.139C6.44834 20.4178 5.92778 20.6785 5.80741 20.7184C5.66728 20.7647 4.77886 20.8039 3.33749 20.8271C0.851256 20.8673 0.908533 20.858 0.473828 21.2927C0.0199884 21.7465 0.0254285 21.7099 0.00566913 24.4521C-0.0145904 27.2679 -0.00458573 27.3418 0.458445 27.8049C0.904406 28.2508 0.974064 28.2622 3.65014 28.3226L6.02626 28.3762L10.6847 29.8837C13.2469 30.7128 15.7512 31.5256 16.2498 31.6901C17.0802 31.964 17.2065 31.9889 17.7506 31.987C18.5566 31.9843 18.8362 31.8645 19.8776 31.0757C27.4459 25.3437 31.4454 22.2857 31.5842 22.1247C31.6782 22.0157 31.8146 21.7717 31.8874 21.5826C32.2497 20.6407 31.7059 19.5826 30.7109 19.2933C30.1426 19.1281 29.6757 19.239 28.9623 19.7083L28.7623 19.8399L28.7983 19.4104C28.8434 18.8726 28.7334 17.9043 28.5332 17.0776C27.9561 14.6939 26.2678 12.0644 24.29 10.4685L24.0448 10.2707L24.2083 10.0332C24.4402 9.69614 24.5101 9.47616 24.5121 9.0776C24.5144 8.59775 24.3596 8.25189 23.9965 7.92549C23.8284 7.77429 23.6909 7.6186 23.6909 7.57951C23.6909 7.54037 23.9215 6.71454 24.2034 5.7444C24.6495 4.20892 24.7163 3.91572 24.7192 3.48027C24.7233 2.86873 24.5651 2.50899 24.1133 2.1028C23.7279 1.75633 23.3659 1.63564 22.7118 1.63564H22.1927L22.0728 1.40116C21.5587 0.395808 20.247 -0.190157 19.1103 0.0777825ZM20.2552 1.16792C20.6321 1.30086 20.9077 1.52797 21.1101 1.87226C21.2827 2.16583 21.2836 2.17359 21.3147 3.58481C21.3455 4.97897 21.3485 5.00517 21.4976 5.16368C21.6857 5.36365 21.9823 5.37672 22.213 5.19526L22.3777 5.0657V3.88214V2.69865H22.7757C23.0847 2.69865 23.2109 2.72785 23.3398 2.82921C23.5362 2.98378 23.6909 3.26147 23.6909 3.45976C23.6909 3.53792 23.4467 4.46817 23.1482 5.52698L22.6057 7.45214L19.7309 7.43588L16.8562 7.41963L16.3009 5.44995L15.7457 3.48027L15.8487 3.2092C15.9862 2.84703 16.2338 2.69921 16.7032 2.6989L17.0627 2.69865V3.79604C17.0627 5.16125 17.1228 5.32489 17.6237 5.32489C17.7202 5.32489 17.8657 5.27117 17.9468 5.20552C18.0923 5.0879 18.095 5.0652 18.1269 3.65791C18.1626 2.09105 18.1791 2.01589 18.5861 1.58343C19.0237 1.11834 19.6633 0.959074 20.2552 1.16792ZM23.296 8.71236C23.5015 8.90545 23.4937 9.25518 23.2794 9.45659L23.118 9.60816H19.7097H16.3016L16.1506 9.4327C15.9535 9.20347 15.9545 8.92865 16.1532 8.72993L16.3067 8.57642H19.729H23.1513L23.296 8.71236ZM23.2459 11.0228C25.9725 12.9437 28.0156 16.9391 27.6946 19.7223C27.6539 20.0749 27.5876 20.4289 27.5472 20.5092C27.5045 20.5944 26.9011 21.017 26.0982 21.5242L24.7226 22.3933L24.624 22.0656C24.388 21.2804 23.8572 20.8075 23.0343 20.6493C22.8279 20.6096 22.5995 20.5646 22.5267 20.5493C22.4098 20.5246 22.3908 20.4673 22.3647 20.0602C22.2994 19.0432 21.6181 18.1509 20.6269 17.7844L20.283 17.6572L20.2663 16.087C20.2571 15.2233 20.274 14.5167 20.3038 14.5167C20.4073 14.5167 20.865 14.8845 21.0183 15.0909C21.1996 15.3349 21.3147 15.6511 21.3147 15.9048C21.3147 16.1277 21.4627 16.4266 21.5989 16.4788C21.8073 16.5588 22.0907 16.5154 22.233 16.3817C22.351 16.2708 22.3777 16.1808 22.3777 15.8936C22.3777 14.8891 21.6339 13.8784 20.6234 13.5099C20.3464 13.409 20.2517 13.344 20.2517 13.2549C20.2517 13.1892 20.1826 13.0664 20.0982 12.9819C19.8036 12.6873 19.3674 12.8253 19.2003 13.2661C19.1577 13.3786 19.0604 13.4462 18.8536 13.5071C18.2185 13.6942 17.5141 14.3735 17.2452 15.058C17.1314 15.3481 17.1018 15.5458 17.1018 16.0174C17.1018 16.489 17.1314 16.6868 17.2452 16.9769C17.5134 17.6597 18.1489 18.2791 18.8259 18.5172L19.1575 18.6339L19.1752 19.3308L19.1929 20.0276L18.925 19.9874C18.7778 19.9652 17.1097 19.7019 15.2184 19.4021C12.1994 18.9235 11.777 18.8432 11.7578 18.7439C11.7123 18.5071 11.9536 17.3316 12.1949 16.6152C12.9605 14.3421 14.5817 12.1275 16.3516 10.9369L16.7002 10.7024H19.7457H22.7912L23.2459 11.0228ZM19.1887 16.0238V17.5308L18.923 17.3758C18.1145 16.9041 17.8954 15.8053 18.4617 15.0628C18.6167 14.8596 19.0525 14.5257 19.1731 14.5177C19.1817 14.5172 19.1887 15.1949 19.1887 16.0238ZM20.5519 18.9195C20.9362 19.1203 21.3105 19.7147 21.3134 20.1288C21.315 20.3644 21.2757 20.3724 20.6477 20.263L20.2517 20.1941V19.5127C20.2517 19.0786 20.2756 18.8313 20.3174 18.8313C20.3535 18.8313 20.459 18.871 20.5519 18.9195ZM16.8751 20.7416C21.536 21.4781 23.0723 21.742 23.1906 21.8264C23.6122 22.1273 23.7338 22.5971 23.4986 23.0157C23.2516 23.4552 23.6699 23.4239 17.5732 23.4585L12.0495 23.4897L11.8986 23.6652C11.7058 23.8893 11.7058 24.153 11.8985 24.3773L12.0494 24.5527L13.4461 24.584L14.8429 24.6152L16.2897 25.7196C17.0855 26.3271 17.854 26.9017 17.9974 26.9967C18.3505 27.2303 18.8171 27.2699 19.2033 27.099C19.359 27.0301 21.2976 25.8263 23.5114 24.4238C25.7251 23.0214 28.0702 21.5365 28.7227 21.1241C29.3751 20.7117 29.9968 20.3474 30.1043 20.3143C30.5322 20.183 31.0052 20.6443 30.9182 21.108C30.8974 21.2186 30.7893 21.3955 30.6779 21.5009C30.3578 21.8038 18.7683 30.5859 18.4646 30.7557C17.9064 31.0677 17.7489 31.0454 15.5933 30.3476C14.5272 30.0025 11.9806 29.1797 9.93436 28.5192L6.21385 27.3183L5.02579 27.2691C4.37236 27.2419 3.29835 27.2176 2.63916 27.215C1.97991 27.2124 1.39501 27.1927 1.33936 27.1714C1.07499 27.0699 1.05516 26.8879 1.05516 24.5588C1.05516 22.2411 1.07036 22.0967 1.32779 21.9662C1.4139 21.9226 2.21984 21.8919 3.58761 21.8802C5.70686 21.8621 5.71512 21.8615 6.18503 21.6959C6.44434 21.6045 7.31325 21.1712 8.11594 20.7331C9.77147 19.8295 9.89709 19.7759 10.3721 19.7715C10.5612 19.7698 13.4876 20.2063 16.8751 20.7416ZM21.1553 24.6391C21.002 24.7812 18.7832 26.1472 18.7056 26.1472C18.6265 26.1472 16.625 24.6666 16.625 24.6081C16.625 24.5949 17.6577 24.584 18.9199 24.584C20.2465 24.584 21.1896 24.6072 21.1553 24.6391Z" fill="#182A68"/>
</svg>
