<svg width="32" height="34" viewBox="0 0 32 34" fill="none" xmlns="http://www.w3.org/2000/svg">
<path fill-rule="evenodd" clip-rule="evenodd" d="M14.4338 1.07038C14.1169 1.17026 13.5764 1.72991 13.4793 2.0588C13.3697 2.42953 13.3674 8.83342 13.4767 9.19815C13.5721 9.51652 13.9674 9.97112 14.2868 10.1299C14.4868 10.2292 14.7294 10.2568 15.6355 10.2833L16.7404 10.3156L16.1036 11.7987C15.7534 12.6145 15.4668 13.3494 15.4668 13.4319C15.4668 13.6441 15.7431 13.8989 15.9731 13.8989C16.1227 13.8989 16.651 13.5191 18.4876 12.0911L20.8127 10.2833H22.6478C24.8009 10.2833 24.9214 10.2604 25.3645 9.76754C25.518 9.59677 25.6782 9.34181 25.7204 9.20093C25.829 8.8384 25.829 2.43088 25.7204 2.06835C25.6782 1.92747 25.518 1.67251 25.3645 1.50173C24.8774 0.959974 25.1634 0.98509 19.5713 0.992579C16.1878 0.997099 14.5895 1.02131 14.4338 1.07038ZM24.6056 2.17753L24.7641 2.33597V5.63464V8.93331L24.6056 9.09175L24.4472 9.25025H22.4497H20.4524L18.8807 10.4727C18.0163 11.145 17.3014 11.6874 17.2919 11.6779C17.2825 11.6685 17.4491 11.2587 17.6621 10.7673C17.8752 10.2759 18.0494 9.80486 18.0494 9.72054C18.0494 9.63622 17.9781 9.49592 17.8909 9.40876L17.7325 9.25025H16.2416H14.7507L14.5923 9.09175L14.4338 8.93331V5.63464V2.33597L14.5923 2.17753L14.7507 2.01903H19.599H24.4472L24.6056 2.17753ZM17.4031 3.47237L17.0518 3.82819L17.9532 4.73138L18.8547 5.63464L17.9525 6.53861L17.0502 7.44264L17.4206 7.81298L17.791 8.18339L18.695 7.2811L19.599 6.37888L20.5029 7.2811L21.407 8.18339L21.7773 7.81298L22.1477 7.44264L21.2454 6.53861L20.3432 5.63464L21.2454 4.73067L22.1477 3.82664L21.7773 3.4563L21.407 3.08589L20.5029 3.98818L19.599 4.8904L18.7104 4.00355C18.2216 3.5157 17.8067 3.11662 17.7881 3.11662C17.7696 3.11662 17.5964 3.27674 17.4031 3.47237ZM3.84522 7.70464C2.19398 7.98356 0.772268 8.22936 0.685881 8.25092C0.439115 8.31258 0.0526967 8.74013 0.00265918 9.00691C-0.0568047 9.32373 0.899138 15.0766 1.05564 15.3437C1.1162 15.4472 1.24068 15.5876 1.33217 15.6558C1.64776 15.891 1.86715 15.8913 3.28583 15.6587C4.02574 15.5373 4.63839 15.4476 4.6473 15.4594C4.65628 15.4711 4.97845 17.379 5.36332 19.6992L6.06314 23.9176L5.92161 24.5092C5.64076 25.6832 5.65851 25.7236 7.08565 27.1706L8.23561 28.3364V30.5764V32.8163H8.75212H9.26864V27.6511V22.486H8.75212H8.23561L8.23483 24.6973L8.23412 26.9087L7.52462 26.1928C7.01508 25.6786 6.81519 25.433 6.81519 25.3209C6.81519 25.1146 7.82129 21.4334 7.93919 21.2084C7.98961 21.1121 8.12778 20.9403 8.24626 20.8267C8.67161 20.4187 8.66121 20.4199 11.6853 20.4199C14.3099 20.4199 14.4446 20.4258 14.7895 20.5548C15.4265 20.7932 15.5881 21.0197 17.3148 24.0942C18.1805 25.6357 18.8882 26.9141 18.8876 26.9351C18.8852 27.0147 18.2259 27.4013 18.1803 27.3499C18.1539 27.3203 17.543 26.3082 16.8226 25.1008C16.1023 23.8935 15.4429 22.8113 15.3575 22.6958C15.2286 22.5219 15.1592 22.486 14.9517 22.486C14.7582 22.486 14.6711 22.5246 14.5676 22.6561C14.4348 22.8249 14.4338 22.8657 14.4338 27.8213V32.8163H14.9503H15.4668L15.467 28.8294L15.4672 24.8426L16.5285 26.6125C17.1122 27.5859 17.648 28.4406 17.7192 28.5117C17.9562 28.7488 18.1787 28.6804 19.0526 28.1015C19.898 27.5415 20.1155 27.3392 20.1155 27.1131C20.1155 27.0399 19.3256 25.5693 18.3602 23.8452C16.7571 20.9823 16.5681 20.6739 16.1811 20.2886C15.7028 19.8123 15.202 19.5427 14.5834 19.4283L14.1842 19.3545L14.4233 18.9989C15.4679 17.4449 14.8717 15.3109 13.1654 14.4961C12.6627 14.2561 12.6512 14.254 11.8479 14.254H11.0374L10.5243 14.5069C8.81759 15.3481 8.23561 17.4484 9.27955 18.9989L9.51902 19.3546L9.05357 19.3941C8.03094 19.4809 7.21426 20.1307 6.84463 21.1515L6.70775 21.5294L6.18846 18.4082C5.90282 16.6916 5.67407 15.2809 5.68008 15.2734C5.68608 15.2659 6.29189 15.16 7.02631 15.0381C7.86371 14.8991 8.43789 14.7718 8.56624 14.6967C8.84735 14.5321 9.0138 14.29 9.05215 13.9901C9.09793 13.6317 8.13618 7.92494 7.9869 7.66933C7.83227 7.40455 7.42681 7.18496 7.10573 7.19194C6.96368 7.19504 5.49645 7.42579 3.84522 7.70464ZM7.58105 11.0026C7.83634 12.5346 8.03597 13.7972 8.02474 13.8084C7.99549 13.8377 2.19682 14.8028 2.05045 14.8028C1.94095 14.8028 1.88717 14.5504 1.49688 12.2041C1.25908 10.7748 1.05829 9.52117 1.05061 9.41825L1.03666 9.23108L4.00663 8.73135C5.64011 8.4565 7.00817 8.22839 7.04671 8.22445C7.08991 8.22 7.29522 9.2877 7.58105 11.0026ZM5.03559 10.8771C4.54761 11.5625 4.12633 12.1483 4.09954 12.1788C4.07268 12.2092 3.75696 12.1023 3.39785 11.9411L2.74491 11.6479L2.5507 12.0763C2.44384 12.3119 2.36837 12.5351 2.38296 12.5723C2.42409 12.6773 4.05176 13.3824 4.25307 13.3824C4.35302 13.3824 4.49596 13.3181 4.57647 13.2371C4.73001 13.0825 6.67954 10.3773 6.72376 10.2573C6.74455 10.201 6.16502 9.73539 5.96816 9.65036C5.94324 9.63958 5.52357 10.1916 5.03559 10.8771ZM25.5316 14.5091C24.4224 14.8149 23.5103 15.7884 23.2758 16.9165C23.119 17.6716 23.3066 18.5791 23.7587 19.2508L23.97 19.5648L23.2727 19.5935C22.6293 19.62 22.5386 19.6405 22.0972 19.8587C21.5196 20.1442 21.1513 20.5217 20.8686 21.1185L20.6643 21.5498L20.6458 25.5696L20.6273 29.5893L20.7882 29.7501C20.9436 29.9056 20.9776 29.9109 21.8235 29.9109H22.6981V31.4605V33.01H23.2146H23.7311V27.5866V22.1632H23.2146H22.6981V25.5205V28.8779H22.1815H21.665V25.415C21.665 22.8849 21.6862 21.8806 21.7435 21.6864C21.8483 21.3318 22.3832 20.7969 22.7378 20.6921C23.1158 20.5805 29.5116 20.5805 29.8895 20.6921C30.2442 20.7969 30.779 21.3318 30.8838 21.6864C30.9411 21.8806 30.9623 22.8849 30.9623 25.415V28.8779H30.4458H29.9293V25.5205V22.1632H29.4128H28.8963V27.5866V33.01H29.4128H29.9293V31.4605V29.9109H30.8038C31.6497 29.9109 31.6837 29.9056 31.8392 29.7501L32 29.5893L31.9815 25.5696L31.9631 21.5498L31.7587 21.1185C31.4761 20.5217 31.1078 20.1442 30.5302 19.8587C30.0887 19.6405 29.998 19.62 29.3546 19.5935L28.6574 19.5648L28.8687 19.2508C29.7222 17.9824 29.5353 16.3125 28.4238 15.277C27.7808 14.6779 27.1163 14.4127 26.2814 14.4219C26.0328 14.4247 25.6954 14.4639 25.5316 14.5091ZM12.7419 15.4401C13.1636 15.6577 13.5068 16.0018 13.7055 16.4065C13.857 16.7151 13.8847 16.8524 13.8834 17.2885C13.8813 17.9637 13.7077 18.3666 13.2316 18.8017C12.4294 19.5348 11.273 19.5348 10.4708 18.8017C9.47641 17.8928 9.59385 16.3479 10.7148 15.5937C11.1387 15.3083 11.3444 15.2557 11.9481 15.278C12.3271 15.2919 12.5384 15.3351 12.7419 15.4401ZM27.1853 15.6473C27.5934 15.8409 27.9823 16.2276 28.1864 16.6429C28.3175 16.9094 28.3451 17.0615 28.3446 17.5145C28.3441 18.0148 28.3247 18.0993 28.1252 18.4701C27.8813 18.9234 27.6785 19.1192 27.1922 19.3712C26.9128 19.516 26.7787 19.5424 26.3137 19.5441C25.8588 19.5457 25.7096 19.5189 25.4421 19.3873C23.7637 18.562 23.9035 16.1935 25.6684 15.5522C26.0758 15.4042 26.7638 15.4473 27.1853 15.6473ZM11.3347 30.6857V33.01H11.8512H12.3677V30.6857V28.3614H11.8512H11.3347V30.6857ZM25.7972 30.6857V33.01H26.3137H26.8302V30.6857V28.3614H26.3137H25.7972V30.6857Z" fill="#2F80ED"/>
</svg>
