<svg width="32" height="34" viewBox="0 0 32 34" fill="none" xmlns="http://www.w3.org/2000/svg">
<path fill-rule="evenodd" clip-rule="evenodd" d="M22.5061 2.58539C20.9503 4.13778 20.9101 4.18419 20.9101 4.4285C20.9101 4.62908 20.9528 4.72315 21.1239 4.89972L21.3378 5.12038L21.1578 5.30827L20.9777 5.49622H17.525C13.7275 5.49622 13.494 5.51423 12.5443 5.88038C11.5298 6.27148 11.3838 6.40013 7.07226 10.7049C2.45004 15.3198 2.70635 15.0032 2.70635 16.0991C2.70635 16.6808 2.72112 16.7558 2.91113 17.1419C3.16713 17.6619 3.66043 18.129 4.16074 18.3252C4.43475 18.4326 4.65404 18.467 5.0831 18.47C5.59229 18.4735 5.68692 18.4546 6.07452 18.2712C6.45299 18.0923 6.6941 17.8803 8.13854 16.4568C9.25217 15.3594 9.94231 14.7308 10.3012 14.4871C10.5912 14.2901 10.8409 14.1415 10.8562 14.1568C10.8715 14.1721 10.8313 14.3759 10.7669 14.6096C10.6034 15.2027 10.6029 16.7917 10.766 17.38C11.317 19.3664 12.8899 20.921 14.8525 21.4189C15.5674 21.6002 16.6645 21.6258 17.3688 21.4777C19.0358 21.127 20.4963 20.0018 21.2666 18.4745C21.6375 17.7392 21.9496 16.2556 21.8477 15.7126C21.8043 15.4811 21.7662 15.4993 22.5335 15.3849C23.3501 15.2632 24.2241 14.9057 25.023 14.3664C25.2362 14.2226 25.9667 13.556 26.6465 12.885L27.8825 11.665L28.1027 11.8785C28.2785 12.0489 28.3733 12.092 28.5721 12.092C28.8142 12.092 28.8656 12.0477 30.3859 10.5297C31.2464 9.67054 31.9668 8.90416 31.9867 8.8268C32.0065 8.74936 32.0039 8.60863 31.9809 8.51406C31.9347 8.32436 24.9152 1.24102 24.6162 1.08247C24.2243 0.874629 24.2117 0.883573 22.5061 2.58539ZM29.5385 9.62388L28.569 10.5934L25.4891 7.51352L22.4092 4.43362L23.3778 3.46353L24.3463 2.49351L27.4272 5.5739L30.5081 8.65429L29.5385 9.62388ZM24.6241 8.39992L26.9641 10.7406L26.3438 11.4108C25.0883 12.7669 24.2617 13.4645 23.5237 13.7909C22.8374 14.0944 22.2719 14.2128 21.5014 14.2144C20.5822 14.2164 20.1978 14.1158 19.156 13.6011C18.7088 13.38 18.1513 13.1412 17.9171 13.0702C17.3473 12.8974 16.3974 12.8142 14.9935 12.8142C13.8515 12.8141 13.8294 12.8115 13.5837 12.6522C12.819 12.1564 12.8003 11.0921 13.5481 10.6179L13.8328 10.4374L16.0253 10.437C17.294 10.4368 18.3127 10.4103 18.4429 10.3741C18.7682 10.2837 18.9058 10.1038 18.9058 9.76861C18.9058 9.53794 18.8742 9.46114 18.7272 9.33473L18.5486 9.18112L16.0377 9.19944L13.5268 9.21771L13.1661 9.38677C12.244 9.81884 11.6695 10.8305 11.765 11.8536L11.8014 12.2441L11.1468 12.5568C9.75604 13.2212 9.03539 13.7797 7.05137 15.7309C5.63057 17.1282 5.5659 17.1826 5.27687 17.226C4.74273 17.306 4.24186 17.0572 4.02727 16.605C3.9028 16.3428 3.89636 15.8805 4.01344 15.611C4.12077 15.364 11.7124 7.78647 12.1391 7.50044C12.5709 7.21092 13.1454 6.96543 13.6642 6.84853C14.051 6.7614 14.6216 6.74714 17.7162 6.74714C21.7196 6.74714 21.5363 6.76572 21.9676 6.31657C22.1036 6.17497 22.2304 6.05913 22.2494 6.05913C22.2684 6.05913 23.337 7.11247 24.6241 8.39992ZM12.9685 13.7488C13.1282 13.8501 13.3473 13.9519 13.4554 13.9751C13.7522 14.0387 13.7544 14.0471 13.5532 14.3642C13.2711 14.8087 13.1203 15.3692 13.1203 15.9727C13.1203 17.7203 14.4666 19.0687 16.2115 19.0687C17.0719 19.0687 17.7322 18.8086 18.3693 18.2187C19.0864 17.5548 19.4628 16.4764 19.3103 15.5222C19.2743 15.2968 19.2561 15.1011 19.2699 15.0873C19.2837 15.0735 19.3763 15.0937 19.4756 15.1322C19.575 15.1707 19.8523 15.2524 20.0918 15.3139C20.6113 15.4472 20.6531 15.5255 20.5905 16.2499C20.4833 17.4924 19.9163 18.5946 18.9908 19.3594C18.5355 19.7357 17.7899 20.1004 17.2138 20.2286C16.5129 20.3845 15.436 20.3336 14.8193 20.1155C13.5231 19.657 12.5024 18.6219 12.0821 17.3396C11.9176 16.8374 11.9008 16.707 11.9024 15.9414C11.9039 15.1815 11.9216 15.047 12.0784 14.5967C12.2649 14.0616 12.5258 13.5647 12.6203 13.5647C12.6521 13.5647 12.8088 13.6475 12.9685 13.7488ZM16.8897 14.2261C17.0487 14.2802 17.3055 14.436 17.4602 14.5723C18.3001 15.3116 18.3001 16.6338 17.4602 17.373C17.1087 17.6825 16.7204 17.8178 16.1839 17.8178C15.8443 17.8178 15.6964 17.7824 15.3844 17.6265C14.7383 17.3037 14.43 16.8199 14.3845 16.0576C14.3598 15.6451 14.377 15.5336 14.5099 15.2445C14.729 14.7679 14.9465 14.5377 15.3844 14.3188C15.6964 14.163 15.8443 14.1276 16.1839 14.1276C16.4131 14.1276 16.7307 14.1719 16.8897 14.2261ZM25.572 19.2891C25.3856 19.3415 25.1323 19.4446 25.0091 19.5184C24.8859 19.5922 24.1237 20.3037 23.3153 21.0998C21.6911 22.6991 21.4684 22.8939 20.6726 23.4116C20.1394 23.7585 19.0289 24.3226 18.8793 24.3226C18.8382 24.3226 18.7008 24.2395 18.5737 24.1378C18.4468 24.0362 18.2021 23.8892 18.0301 23.8113C17.7385 23.6791 17.6011 23.6667 15.9974 23.6271C13.9717 23.5772 13.9074 23.5643 12.6199 22.9466C11.6589 22.4855 11.2983 22.3693 10.4741 22.2551C9.06135 22.0592 7.30505 22.5378 6.11511 23.4427C5.89151 23.6127 4.43419 25.0281 2.87667 26.5879C0.378329 29.0899 0.0402672 29.4513 0.00718038 29.6554C-0.0623083 30.0836 0.385772 30.4708 0.780062 30.3232C0.87632 30.2872 2.24977 28.9687 3.83218 27.3931C5.4146 25.8175 6.84509 24.4371 7.01109 24.3255C7.85246 23.7595 8.76119 23.4871 9.80533 23.4878C10.7289 23.4885 11.0982 23.5883 12.2134 24.1386C13.4824 24.7648 13.8054 24.8299 15.8822 24.8781L17.5497 24.9168L17.7855 25.1077C18.1089 25.3697 18.2769 25.7146 18.2713 26.1051C18.263 26.6791 17.8847 27.1333 17.3127 27.256C17.1147 27.2985 16.1695 27.3248 14.8428 27.3248H12.6936L12.5317 27.5172C12.308 27.7831 12.3153 28.075 12.5523 28.3402L12.7349 28.5444H15.101C17.7701 28.5444 17.9081 28.5252 18.514 28.07C19.2075 27.549 19.5297 26.8741 19.5183 25.967L19.5118 25.4537L20.2095 25.1104C20.9238 24.759 21.7273 24.2515 22.2833 23.8005C22.4553 23.661 23.2715 22.881 24.0971 22.0671C25.7213 20.466 25.8232 20.3942 26.3691 20.4691C27.0856 20.5673 27.5432 21.2954 27.3178 21.9784C27.2685 22.1278 27.0263 22.437 26.6537 22.8263C26.1131 23.3913 26.0673 23.4587 26.0673 23.6897C26.0673 24.0685 26.2849 24.2913 26.6547 24.2913C26.9307 24.2913 26.9595 24.2723 27.5072 23.7284C27.8189 23.4188 28.155 23.0388 28.2539 22.884C29.2227 21.3687 28.1704 19.3256 26.3671 19.2206C26.0724 19.2034 25.791 19.2276 25.572 19.2891ZM24.2487 25.2559C23.7672 25.7374 24.2823 26.4966 24.912 26.2335C25.0643 26.1699 25.1626 26.0716 25.2262 25.9193C25.4893 25.2896 24.7301 24.7745 24.2487 25.2559ZM20.9449 28.5312C19.1485 30.3037 18.8068 30.5454 17.6918 30.8329C17.2613 30.9439 16.9682 30.9525 13.5762 30.9525C10.5604 30.9525 9.89477 30.9678 9.75529 31.0404C9.66241 31.0887 9.36826 31.3529 9.10169 31.6274C8.65867 32.0835 8.61696 32.1483 8.61696 32.3803C8.61696 32.7273 8.8141 32.9503 9.16217 32.997C9.41892 33.0314 9.43687 33.0216 9.85512 32.6179L10.2844 32.2034H13.7549C15.9036 32.2034 17.3666 32.1784 17.5964 32.1376C18.4862 31.98 19.3891 31.5851 20.0942 31.0452C20.7344 30.5548 23.2342 28.0203 23.2866 27.8083C23.3385 27.5984 23.222 27.2916 23.0426 27.1659C22.9708 27.1157 22.8017 27.0746 22.6667 27.0746C22.4303 27.0746 22.3661 27.1289 20.9449 28.5312Z" fill="#182A68"/>
</svg>
