<svg width="28" height="28" viewBox="0 0 28 28" fill="none" xmlns="http://www.w3.org/2000/svg">
<path d="M14 27.3333C6.63602 27.3333 0.666687 21.364 0.666687 14C0.666687 6.636 6.63602 0.666664 14 0.666664C21.364 0.666664 27.3334 6.636 27.3334 14C27.3334 21.364 21.364 27.3333 14 27.3333ZM14 24.6667C16.829 24.6667 19.5421 23.5429 21.5425 21.5425C23.5429 19.5421 24.6667 16.829 24.6667 14C24.6667 11.171 23.5429 8.45791 21.5425 6.45752C19.5421 4.45714 16.829 3.33333 14 3.33333C11.171 3.33333 8.45794 4.45714 6.45755 6.45752C4.45716 8.45791 3.33335 11.171 3.33335 14C3.33335 16.829 4.45716 19.5421 6.45755 21.5425C8.45794 23.5429 11.171 24.6667 14 24.6667ZM12.6667 7.33333H15.3334V10H12.6667V7.33333ZM12.6667 12.6667H15.3334V20.6667H12.6667V12.6667Z" fill="#2F80ED"/>
</svg>
