<svg width="30" height="24" viewBox="0 0 30 24" fill="none" xmlns="http://www.w3.org/2000/svg">
<path d="M27 21.3333H29.6667V24H0.333374V21.3333H3.00004V1.33333C3.00004 0.979711 3.14052 0.640573 3.39056 0.390524C3.64061 0.140476 3.97975 0 4.33337 0H17.6667C18.0203 0 18.3595 0.140476 18.6095 0.390524C18.8596 0.640573 19 0.979711 19 1.33333V21.3333H24.3334V10.6667H21.6667V8H25.6667C26.0203 8 26.3595 8.14048 26.6095 8.39052C26.8596 8.64057 27 8.97971 27 9.33333V21.3333ZM5.66671 2.66667V21.3333H16.3334V2.66667H5.66671ZM8.33337 10.6667H13.6667V13.3333H8.33337V10.6667ZM8.33337 5.33333H13.6667V8H8.33337V5.33333Z" fill="#2F80ED"/>
</svg>
