<svg width="41" height="53" viewBox="0 0 41 53" fill="none" xmlns="http://www.w3.org/2000/svg">
<path d="M29.6427 0H2.73738C1.24578 0 0.0256348 1.17639 0.0256348 2.6145V51.9776C0.0256348 52.5406 0.503512 53 1.08601 53H39.9397C40.5236 53 41.0001 52.5393 41.0001 51.9776V10.95L29.6427 0Z" fill="#E3E3E3"/>
<path d="M29.6426 7.9758C29.6426 9.61156 31.031 10.9515 32.729 10.9515H40.9999L29.6426 0.00146484V7.9758Z" fill="#D1D1D1"/>
<path d="M40.9744 34.0181H0V45.4275H40.9744V34.0181Z" fill="#4F42B3"/>
<path d="M14.5379 37.2151H15.5019V40.3164C15.5019 40.603 15.4351 40.8521 15.3015 41.0634C15.1693 41.2748 14.9854 41.4377 14.7496 41.5521C14.5138 41.6665 14.2398 41.7236 13.9274 41.7236C13.6496 41.7236 13.3973 41.6766 13.1706 41.5825C12.9453 41.4869 12.7666 41.3421 12.6345 41.1481C12.5023 40.9527 12.437 40.7073 12.4385 40.4119H13.4093C13.4123 40.5292 13.4371 40.6298 13.4837 40.7138C13.5317 40.7963 13.597 40.86 13.6796 40.9049C13.7637 40.9483 13.8628 40.97 13.977 40.97C14.0971 40.97 14.1985 40.9454 14.2811 40.8962C14.3652 40.8455 14.429 40.7717 14.4725 40.6747C14.5161 40.5777 14.5379 40.4582 14.5379 40.3164V37.2151Z" fill="white"/>
<path d="M16.3083 41.6628V37.2151H18.1284C18.4783 37.2151 18.7764 37.2795 19.0226 37.4084C19.2689 37.5358 19.4566 37.7132 19.5858 37.9405C19.7164 38.1663 19.7817 38.4269 19.7817 38.7223C19.7817 39.0177 19.7157 39.2783 19.5835 39.5041C19.4514 39.73 19.2599 39.9059 19.0091 40.0319C18.7598 40.1578 18.458 40.2208 18.1036 40.2208H16.9435V39.4672H17.9459C18.1336 39.4672 18.2883 39.4361 18.4099 39.3738C18.5331 39.3101 18.6247 39.2225 18.6847 39.111C18.7463 38.9981 18.7771 38.8685 18.7771 38.7223C18.7771 38.5746 18.7463 38.4458 18.6847 38.3357C18.6247 38.2242 18.5331 38.1381 18.4099 38.0773C18.2868 38.015 18.1306 37.9839 17.9414 37.9839H17.2837V41.6628H16.3083Z" fill="white"/>
<path d="M20.4153 41.6628V37.2151H23.5237V37.9904H21.3906V39.0502H23.3638V39.8255H21.3906V40.8875H23.5327V41.6628H20.4153Z" fill="white"/>
<path d="M27.3581 38.6528C27.3266 38.5471 27.2823 38.4537 27.2252 38.3726C27.1681 38.2901 27.0983 38.2206 27.0157 38.1642C26.9346 38.1062 26.8415 38.0621 26.7364 38.0317C26.6328 38.0013 26.5179 37.9861 26.3918 37.9861C26.156 37.9861 25.9488 38.0425 25.7701 38.1555C25.5929 38.2684 25.4547 38.4327 25.3556 38.6485C25.2565 38.8627 25.2069 39.1248 25.2069 39.4346C25.2069 39.7445 25.2557 40.008 25.3533 40.2251C25.451 40.4423 25.5891 40.6081 25.7678 40.7225C25.9465 40.8354 26.1575 40.8919 26.4008 40.8919C26.6215 40.8919 26.81 40.8542 26.9662 40.7789C27.1238 40.7022 27.244 40.5943 27.3266 40.4553C27.4107 40.3164 27.4527 40.152 27.4527 39.9624L27.6509 39.9906H26.4616V39.2826H28.392V39.8429C28.392 40.2338 28.3064 40.5697 28.1352 40.8506C27.964 41.13 27.7283 41.3458 27.4279 41.4978C27.1276 41.6484 26.7837 41.7236 26.3963 41.7236C25.9638 41.7236 25.5839 41.6317 25.2565 41.4478C24.9291 41.2625 24.6738 40.9997 24.4906 40.6595C24.3089 40.3178 24.2181 39.9124 24.2181 39.4433C24.2181 39.0828 24.2721 38.7614 24.3803 38.4791C24.4899 38.1953 24.643 37.9549 24.8398 37.758C25.0365 37.5611 25.2655 37.4113 25.5268 37.3085C25.7881 37.2057 26.0711 37.1543 26.376 37.1543C26.6373 37.1543 26.8806 37.1912 27.1058 37.2651C27.3311 37.3374 27.5308 37.4402 27.705 37.5734C27.8807 37.7066 28.0241 37.8652 28.1352 38.0491C28.2463 38.2315 28.3177 38.4327 28.3492 38.6528H27.3581Z" fill="white"/>
</svg>
