<svg width="41" height="53" viewBox="0 0 41 53" fill="none" xmlns="http://www.w3.org/2000/svg">
<path d="M29.5525 0H2.70583C1.21749 0 0 1.17638 0 2.61449V51.9776C0 52.5406 0.476835 53 1.05807 53H39.827C40.4097 53 40.8851 52.5393 40.8851 51.9776V10.9501L29.5525 0Z" fill="#E3E3E3"/>
<path d="M29.5525 7.97433C29.5525 9.61009 30.9379 10.9501 32.6322 10.9501H40.8851L29.5525 0V7.97433Z" fill="#D1D1D1"/>
<path d="M41.0001 34.0181H0.11499V45.4275H41.0001V34.0181Z" fill="#E30613"/>
<path d="M14.7559 41.6626V37.2148H16.5719C16.9211 37.2148 17.2185 37.2793 17.4642 37.4081C17.71 37.5355 17.8973 37.7129 18.0261 37.9402C18.1565 38.1661 18.2217 38.4267 18.2217 38.722C18.2217 39.0174 18.1557 39.278 18.0239 39.5039C17.892 39.7297 17.701 39.9056 17.4507 40.0316C17.202 40.1576 16.9008 40.2205 16.5472 40.2205H15.3897V39.4669H16.3899C16.5772 39.4669 16.7315 39.4358 16.8529 39.3736C16.9757 39.3099 17.0672 39.2223 17.1271 39.1108C17.1885 38.9978 17.2192 38.8683 17.2192 38.722C17.2192 38.5744 17.1885 38.4455 17.1271 38.3355C17.0672 38.224 16.9757 38.1378 16.8529 38.077C16.73 38.0148 16.5742 37.9836 16.3854 37.9836H15.7291V41.6626H14.7559Z" fill="white"/>
<path d="M20.4856 41.6626H18.8538V37.2148H20.4991C20.9621 37.2148 21.3607 37.3039 21.6948 37.482C22.0289 37.6586 22.2859 37.9127 22.4657 38.2442C22.647 38.5758 22.7377 38.9725 22.7377 39.4344C22.7377 39.8977 22.647 40.2958 22.4657 40.6288C22.2859 40.9618 22.0274 41.2174 21.6903 41.3954C21.3547 41.5735 20.9531 41.6626 20.4856 41.6626ZM19.827 40.8569H20.4451C20.7328 40.8569 20.9748 40.8076 21.1711 40.7092C21.3689 40.6093 21.5172 40.4551 21.6161 40.2466C21.7165 40.0367 21.7667 39.7659 21.7667 39.4344C21.7667 39.1057 21.7165 38.8371 21.6161 38.6286C21.5172 38.4202 21.3696 38.2667 21.1734 38.1682C20.9771 38.0698 20.7351 38.0206 20.4474 38.0206H19.827V40.8569Z" fill="white"/>
<path d="M23.4586 41.6626V37.2148H26.5064V37.9902H24.4318V39.05H26.3041V39.8253H24.4318V41.6626H23.4586Z" fill="white"/>
</svg>
