<svg width="25" height="24" viewBox="0 0 25 24" fill="none" xmlns="http://www.w3.org/2000/svg">
<path d="M6.4733 7.72C6.70459 8.56645 7.2077 9.31341 7.90518 9.84585C8.60266 10.3783 9.45582 10.6667 10.3333 10.6667H15.6666C17.2373 10.6668 18.7576 11.2214 19.9594 12.2327C21.1612 13.244 21.9674 14.6471 22.236 16.1947C23.1409 16.4899 23.911 17.0981 24.4078 17.91C24.9047 18.7219 25.0959 19.6843 24.947 20.6245C24.7981 21.5647 24.319 22.421 23.5955 23.0396C22.8721 23.6583 21.9518 23.9988 21 24C20.0687 24.0007 19.1663 23.6765 18.4485 23.0832C17.7307 22.4898 17.2424 21.6646 17.0678 20.7499C16.8932 19.8351 17.0433 18.888 17.4921 18.0721C17.941 17.2561 18.6605 16.6223 19.5266 16.28C19.2954 15.4336 18.7922 14.6866 18.0948 14.1542C17.3973 13.6217 16.5441 13.3333 15.6666 13.3333H10.3333C8.89049 13.3355 7.48628 12.8674 6.3333 12V16.2267C7.22329 16.5412 7.97343 17.1603 8.45111 17.9744C8.9288 18.7886 9.10328 19.7454 8.94372 20.6757C8.78415 21.6061 8.30081 22.4501 7.57913 23.0585C6.85745 23.6669 5.94391 24.0007 4.99997 24.0007C4.05603 24.0007 3.14248 23.6669 2.42081 23.0585C1.69913 22.4501 1.21579 21.6061 1.05622 20.6757C0.896653 19.7454 1.07113 18.7886 1.54882 17.9744C2.02651 17.1603 2.77664 16.5412 3.66664 16.2267V7.77334C2.7826 7.46122 2.03624 6.84859 1.55777 6.04236C1.07931 5.23613 0.899131 4.28749 1.04868 3.36198C1.19823 2.43647 1.66801 1.59286 2.37605 0.978354C3.08408 0.363847 3.98541 0.0174664 4.92276 -0.00034534C5.8601 -0.0181571 6.77394 0.293732 7.50481 0.880896C8.23568 1.46806 8.73717 2.29322 8.92177 3.21238C9.10638 4.13154 8.96237 5.08633 8.51488 5.91016C8.06739 6.73398 7.34484 7.37452 6.4733 7.72ZM4.99997 5.33334C5.35359 5.33334 5.69273 5.19286 5.94278 4.94281C6.19283 4.69276 6.3333 4.35363 6.3333 4C6.3333 3.64638 6.19283 3.30724 5.94278 3.05719C5.69273 2.80715 5.35359 2.66667 4.99997 2.66667C4.64635 2.66667 4.30721 2.80715 4.05716 3.05719C3.80711 3.30724 3.66664 3.64638 3.66664 4C3.66664 4.35363 3.80711 4.69276 4.05716 4.94281C4.30721 5.19286 4.64635 5.33334 4.99997 5.33334ZM4.99997 21.3333C5.35359 21.3333 5.69273 21.1929 5.94278 20.9428C6.19283 20.6928 6.3333 20.3536 6.3333 20C6.3333 19.6464 6.19283 19.3072 5.94278 19.0572C5.69273 18.8071 5.35359 18.6667 4.99997 18.6667C4.64635 18.6667 4.30721 18.8071 4.05716 19.0572C3.80711 19.3072 3.66664 19.6464 3.66664 20C3.66664 20.3536 3.80711 20.6928 4.05716 20.9428C4.30721 21.1929 4.64635 21.3333 4.99997 21.3333ZM21 21.3333C21.3536 21.3333 21.6927 21.1929 21.9428 20.9428C22.1928 20.6928 22.3333 20.3536 22.3333 20C22.3333 19.6464 22.1928 19.3072 21.9428 19.0572C21.6927 18.8071 21.3536 18.6667 21 18.6667C20.6463 18.6667 20.3072 18.8071 20.0572 19.0572C19.8071 19.3072 19.6666 19.6464 19.6666 20C19.6666 20.3536 19.8071 20.6928 20.0572 20.9428C20.3072 21.1929 20.6463 21.3333 21 21.3333Z" fill="#2F80ED"/>
</svg>
