<svg width="32" height="32" viewBox="0 0 32 32" fill="none" xmlns="http://www.w3.org/2000/svg">
<path fill-rule="evenodd" clip-rule="evenodd" d="M6.52546 0.054745C5.63493 0.177547 4.41015 0.590704 3.86364 0.952726C3.56953 1.14751 3.39449 1.56116 3.45884 1.90929C3.49705 2.11565 3.75889 2.40444 5.46202 4.11828C7.15364 5.82061 7.42717 6.12192 7.46495 6.32459C7.60253 7.0629 7.0599 7.606 6.32221 7.4683C6.11972 7.43049 5.81867 7.15672 4.11779 5.46366C1.92881 3.28471 1.95858 3.30586 1.39137 3.52268C1.06005 3.6493 0.896268 3.86886 0.593027 4.59284C-0.250782 6.60737 -0.191685 8.86869 0.75481 10.7841C1.14616 11.5762 1.53371 12.1151 2.17846 12.764C3.50543 14.0993 5.07335 14.8116 7.05702 14.9802C7.53755 15.021 8.51694 14.9397 9.1091 14.8098L9.44136 14.7369L9.73309 15.0289L10.0249 15.3209L5.54582 19.8123C2.15295 23.2144 0.998515 24.4101 0.785202 24.7427C0.476896 25.2234 0.243446 25.7538 0.108804 26.2797C-0.000384878 26.7059 -0.000322345 28.0191 0.108867 28.4033C0.607848 30.1583 1.72738 31.3219 3.42988 31.8547C3.82455 31.9782 4.0278 32.001 4.71189 31.9982C5.46083 31.9951 5.57164 31.9788 6.11897 31.7914C7.27515 31.3955 7.20686 31.4552 12.1701 26.5013L16.6891 21.9908L16.9806 22.2826L17.2722 22.5744L17.1991 22.907C16.961 23.9897 16.9788 25.3059 17.2456 26.3501C17.8011 28.5237 19.212 30.2694 21.2216 31.2698C22.2741 31.7937 23.2025 32.0002 24.5048 32C25.7611 31.9998 26.6436 31.8027 27.7365 31.2783C28.2721 31.0213 28.4598 30.8348 28.5356 30.4844C28.6348 30.026 28.6014 29.983 26.5359 27.9025C24.8463 26.2008 24.5724 25.8988 24.5346 25.6962C24.397 24.9579 24.9397 24.4148 25.6774 24.5525C25.8798 24.5903 26.1809 24.8641 27.8818 26.5572C30.0708 28.7361 30.041 28.715 30.6082 28.4981C30.9395 28.3715 31.1033 28.152 31.4065 27.428C32.6216 24.527 31.9367 21.246 29.665 19.0863C28.64 18.1119 27.3132 17.4338 25.8978 17.1611C25.1532 17.0177 23.8991 17.0197 23.1375 17.1656L22.552 17.2778L21.621 16.3476C21.109 15.836 20.69 15.3887 20.69 15.3537C20.69 15.3187 21.8294 14.15 23.222 12.7565L25.7538 10.2231L26.1143 10.5728C26.625 11.0684 26.7333 11.1284 27.1164 11.1284C27.416 11.1284 27.4727 11.1052 27.6902 10.8937C28.0354 10.558 31.9497 3.99655 31.9917 3.68322C32.0116 3.53482 31.9855 3.36745 31.9215 3.23238C31.8654 3.11421 31.1517 2.35199 30.3353 1.53851C29.0386 0.246459 28.8201 0.0538688 28.6064 0.0145622C28.4557 -0.0131653 28.2796 -0.000709826 28.1479 0.0469213C27.7324 0.197263 21.3512 4.06377 21.1122 4.31C20.9009 4.52769 20.8777 4.58446 20.8777 4.88433C20.8777 5.26775 20.9376 5.37616 21.4328 5.88727L21.7822 6.24804L19.2509 8.78206C17.8586 10.1758 16.6909 11.3161 16.6559 11.3161C16.621 11.3161 16.1727 10.8955 15.6598 10.3813L14.7273 9.44646L14.8002 9.11385C15.3345 6.67421 14.6278 4.12611 12.917 2.32351C11.8724 1.22286 10.4995 0.45889 8.99566 0.141245C8.41807 0.0192564 7.11405 -0.0264344 6.52546 0.054745ZM8.90185 2.04818C10.5526 2.48312 11.9378 3.66914 12.6115 5.22444C12.9818 6.0793 13.0253 6.31395 13.0274 7.46686C13.029 8.39181 13.0109 8.59279 12.8886 9.00432C12.734 9.52413 12.7108 9.87407 12.8169 10.0841C12.915 10.2783 21.6865 19.0666 21.8908 19.1752C22.129 19.302 22.4528 19.2871 22.9999 19.1244C23.407 19.0033 23.6169 18.9837 24.5048 18.9837C25.3988 18.9837 25.6012 19.0028 26.0202 19.1273C28.1589 19.7628 29.6595 21.4134 30.0431 23.5525C30.1748 24.2863 30.1423 25.2846 29.9681 25.8592C29.9401 25.9517 29.6469 25.6909 28.5165 24.568C27.387 23.4458 27.0241 23.123 26.7248 22.9741C25.4538 22.3416 24.0816 22.652 23.1969 23.7723C22.7308 24.3624 22.5201 25.3043 22.6915 26.0317C22.867 26.7765 23.0556 27.0309 24.5479 28.5357C25.5202 29.516 25.9235 29.9621 25.8598 29.9866C25.5985 30.087 24.6735 30.1691 24.1668 30.1369C21.7689 29.9845 19.814 28.3991 19.1141 26.0394C18.9897 25.6201 18.9705 25.4175 18.9705 24.5227C18.9705 23.634 18.9901 23.4239 19.1111 23.0165C19.2655 22.4966 19.2887 22.1467 19.1827 21.9367C19.0846 21.7425 10.3131 12.9543 10.1088 12.8456C9.87055 12.7188 9.54667 12.7337 8.99966 12.8966C8.58892 13.0189 8.38668 13.0372 7.46351 13.036C6.31877 13.0346 6.03285 12.9794 5.15396 12.5899C3.65483 11.9257 2.49133 10.5473 2.04488 8.90643C1.87841 8.29467 1.84495 6.92138 1.98341 6.38198L2.06902 6.04819L3.48429 7.45396C4.95935 8.91926 5.20205 9.10378 5.90009 9.29067C6.53352 9.46023 7.32799 9.35489 7.94342 9.01966C8.30594 8.82218 8.86683 8.24917 9.05069 7.88846C9.35568 7.2901 9.44805 6.50942 9.28577 5.9021C9.09897 5.20335 8.91474 4.96069 7.44912 3.48274L6.04305 2.06476L6.37806 1.99679C6.56229 1.95943 6.76935 1.91593 6.83814 1.90015C7.14288 1.8303 8.42351 1.92212 8.90185 2.04818ZM29.0902 2.91799L29.8903 3.72059L28.4016 6.20379L26.9128 8.68693L25.116 6.8894C23.9313 5.70413 23.3454 5.07629 23.3961 5.04606C23.4383 5.02083 24.5423 4.3535 25.8493 3.56305C27.1563 2.77266 28.2402 2.12354 28.2579 2.12066C28.2756 2.11778 28.6501 2.47655 29.0902 2.91799ZM21.8789 11.4718L19.3145 14.0384L18.6424 13.3657L17.9703 12.6931L20.5334 10.1273L23.0964 7.56149L23.7698 8.2334L24.4433 8.90524L21.8789 11.4718ZM13.3736 18.6711L15.3431 20.6433L10.8405 25.146C6.63815 29.3484 6.31002 29.6617 5.9206 29.8433C4.78681 30.372 3.57165 30.1698 2.71209 29.3094C1.86678 28.4635 1.65753 27.2751 2.15363 26.1376C2.3141 25.7697 2.62791 25.4399 6.83182 21.221C9.31022 18.7338 11.3529 16.6989 11.371 16.6989C11.3892 16.6989 12.2903 17.5864 13.3736 18.6711ZM10.9656 19.9413C10.5323 20.2649 5.00325 25.8598 4.93414 26.0445C4.6294 26.8593 5.42862 27.6136 6.20558 27.2445C6.50907 27.1004 12.3544 21.213 12.4074 20.9982C12.4955 20.6399 12.4017 20.2665 12.1638 20.0283C11.9701 19.8344 11.8942 19.8022 11.5785 19.78C11.2528 19.7571 11.1901 19.7736 10.9656 19.9413Z" fill="#2F80ED"/>
</svg>
