<svg width="29" height="29" viewBox="0 0 29 29" fill="none" xmlns="http://www.w3.org/2000/svg">
<path d="M0.666626 28.3333C0.666626 25.5044 1.79043 22.7913 3.79082 20.7909C5.79121 18.7905 8.50432 17.6667 11.3333 17.6667C14.1623 17.6667 16.8754 18.7905 18.8758 20.7909C20.8762 22.7913 22 25.5044 22 28.3333H19.3333C19.3333 26.2116 18.4904 24.1768 16.9901 22.6765C15.4899 21.1762 13.455 20.3333 11.3333 20.3333C9.21156 20.3333 7.17673 21.1762 5.67644 22.6765C4.17615 24.1768 3.33329 26.2116 3.33329 28.3333H0.666626ZM11.3333 16.3333C6.91329 16.3333 3.33329 12.7533 3.33329 8.33334C3.33329 3.91334 6.91329 0.333336 11.3333 0.333336C15.7533 0.333336 19.3333 3.91334 19.3333 8.33334C19.3333 12.7533 15.7533 16.3333 11.3333 16.3333ZM11.3333 13.6667C14.28 13.6667 16.6666 11.28 16.6666 8.33334C16.6666 5.38667 14.28 3 11.3333 3C8.38663 3 5.99996 5.38667 5.99996 8.33334C5.99996 11.28 8.38663 13.6667 11.3333 13.6667ZM22.3786 18.604C24.2524 19.4479 25.8426 20.815 26.9581 22.541C28.0735 24.2669 28.6668 26.2783 28.6666 28.3333H26C26.0003 26.792 25.5554 25.2833 24.7187 23.9888C23.8821 22.6942 22.6894 21.6689 21.284 21.036L22.3773 18.604H22.3786ZM21.4613 3.55067C22.8047 4.1044 23.9532 5.04472 24.7613 6.25231C25.5694 7.4599 26.0005 8.88032 26 10.3333C26.0005 12.1631 25.3169 13.927 24.0833 15.2784C22.8498 16.6299 21.1555 17.4713 19.3333 17.6373V14.9533C20.3212 14.8118 21.2378 14.3574 21.9484 13.6566C22.659 12.9559 23.1262 12.0458 23.2815 11.0599C23.4368 10.0741 23.2719 9.0644 22.8111 8.17914C22.3503 7.29388 21.6179 6.57966 20.7213 6.14134L21.4613 3.55067Z" fill="#182A68"/>
</svg>
