<svg width="28" height="28" viewBox="0 0 28 28" fill="none" xmlns="http://www.w3.org/2000/svg">
<path d="M14 27.3333C6.63596 27.3333 0.666626 21.364 0.666626 14C0.666626 6.636 6.63596 0.666664 14 0.666664C21.364 0.666664 27.3333 6.636 27.3333 14C27.3333 21.364 21.364 27.3333 14 27.3333ZM14 24.6667C16.8289 24.6667 19.542 23.5429 21.5424 21.5425C23.5428 19.5421 24.6666 16.829 24.6666 14C24.6666 11.171 23.5428 8.45791 21.5424 6.45752C19.542 4.45714 16.8289 3.33333 14 3.33333C11.171 3.33333 8.45787 4.45714 6.45749 6.45752C4.4571 8.45791 3.33329 11.171 3.33329 14C3.33329 16.829 4.4571 19.5421 6.45749 21.5425C8.45787 23.5429 11.171 24.6667 14 24.6667ZM15.3333 14H20.6666V16.6667H12.6666V7.33333H15.3333V14Z" fill="#2F80ED"/>
</svg>
